<svg version="1.1" id="Layer_1" xmlns="http://www.w3.org/2000/svg" xmlns:xlink="http://www.w3.org/1999/xlink" x="0px" y="0px"
	 width="100%" viewBox="0 0 321 321" enable-background="new 0 0 321 321" xml:space="preserve">
<path fill="#2E5BFF" opacity="1.000000" stroke="none" 
	d="
M137.704590,1.242265 
	C153.354233,1.000000 168.708450,1.000000 184.531342,1.000000 
	C187.110199,2.864369 189.869110,2.236795 192.181793,2.328440 
	C202.106003,2.721709 211.443512,5.485202 220.439087,9.186265 
	C271.069275,30.017130 304.280975,66.587646 319.210815,119.446915 
	C320.863831,125.299469 320.205688,131.490234 321.757812,137.705109 
	C322.000000,153.354233 322.000000,168.708450 322.000000,184.531342 
	C320.397797,186.664612 321.059448,188.802597 320.912537,190.720459 
	C319.312622,211.608261 311.056000,230.158829 300.124390,247.508530 
	C277.157623,283.959259 244.761200,307.936371 203.030457,319.096436 
	C196.661560,320.799713 190.015610,320.265900 183.295502,321.757721 
	C168.979111,322.000000 154.958206,322.000000 140.468658,322.000000 
	C137.989136,320.240204 135.515167,321.070282 133.272552,320.934174 
	C121.567894,320.223877 110.501244,316.968903 99.865303,312.337646 
	C51.132736,291.117706 19.070795,255.105835 4.194819,203.956879 
	C2.259033,197.300949 2.855686,190.317535 1.242356,183.295868 
	C1.000000,168.979111 1.000000,154.958206 1.000000,140.468658 
	C2.986485,137.541702 2.160944,134.480789 2.320456,131.813675 
	C3.285177,115.682938 9.424868,101.179092 16.402973,87.070602 
	C24.356606,70.989761 35.019424,56.649410 48.016804,44.263859 
	C68.007141,25.214529 91.140465,11.460737 117.954247,4.208344 
	C124.337418,2.481871 130.976105,2.755937 137.704590,1.242265 
z"/>
<path fill="#000000" opacity="1.000000" stroke="none" 
	d="
M1.000000,183.468658 
	C3.251061,182.018692 2.828349,183.928665 2.965290,184.943771 
	C6.894903,214.073273 18.567099,239.793457 37.028774,262.541504 
	C57.950268,288.320465 84.402092,305.920074 116.119759,315.473083 
	C123.238579,317.617218 130.472595,319.825806 138.052917,319.994263 
	C139.150681,320.018646 139.969543,320.396027 140.290695,321.639771 
	C94.904495,322.000000 49.808868,321.959503 4.713717,322.086029 
	C1.517739,322.094971 0.918278,321.269989 0.925628,318.225098 
	C1.033682,273.462708 1.000000,228.699966 1.000000,183.468658 
z"/>
<path fill="#000000" opacity="1.000000" stroke="none" 
	d="
M137.531342,1.000000 
	C138.987976,3.251257 137.076965,2.812231 136.061691,2.967598 
	C108.091476,7.247895 83.318123,18.460070 61.169029,36.139729 
	C44.641090,49.332516 31.604385,65.165855 21.166372,83.404671 
	C12.105260,99.237564 7.014823,116.432045 3.054530,134.059021 
	C2.567940,136.224792 4.026519,138.788513 1.360238,140.290665 
	C1.000000,94.905006 1.040306,49.809902 0.914258,4.715267 
	C0.905336,1.523296 1.724450,0.917727 4.773256,0.925270 
	C48.869526,1.034366 92.966148,1.000000 137.531342,1.000000 
z"/>
<path fill="#000000" opacity="1.000000" stroke="none" 
	d="
M183.468658,322.000000 
	C182.533112,319.685150 184.245850,320.166840 185.519211,319.993866 
	C206.570129,317.134338 226.138321,310.114655 244.344315,299.175659 
	C255.768814,292.311310 266.349457,284.344116 275.628204,274.801880 
	C296.761322,253.068787 311.224304,227.617126 318.103241,197.929962 
	C319.150940,193.408401 318.840149,188.536423 321.659698,184.677902 
	C322.000000,229.429367 321.958740,273.858856 322.086365,318.287872 
	C322.095551,321.487671 321.264709,322.081390 318.223602,322.074066 
	C273.461731,321.966522 228.699478,322.000000 183.468658,322.000000 
z"/>
<path fill="#000000" opacity="1.000000" stroke="none" 
	d="
M322.000000,137.531342 
	C319.746765,138.986984 320.175568,137.074097 320.034149,136.059143 
	C316.117645,107.946037 304.872559,82.845917 287.206848,60.942646 
	C263.995483,32.163456 234.185196,13.308913 197.937042,4.904172 
	C193.412247,3.855021 188.546539,4.131404 184.677917,1.340321 
	C229.428848,1.000000 273.857819,1.041074 318.286316,0.913924 
	C321.482147,0.904778 322.081909,1.729780 322.074432,4.774764 
	C321.965820,48.870529 322.000000,92.966652 322.000000,137.531342 
z"/>
<path fill="#F4FAFF" opacity="1.000000" stroke="none" 
	d="
M76.032547,113.017082 
	C85.001587,107.733757 94.463715,104.497787 103.842445,101.108322 
	C106.441765,100.168930 107.163422,99.453110 105.711418,96.706093 
	C101.794312,89.295403 101.189003,81.738388 106.450005,74.604622 
	C112.015404,67.058090 119.703636,64.359711 128.835052,65.482094 
	C140.946808,66.970802 151.726578,72.336975 162.498611,77.530487 
	C166.025223,79.230774 166.937790,78.658928 168.204559,75.087387 
	C173.631546,59.786350 190.877197,55.737007 202.915222,66.756065 
	C209.224228,72.531036 212.755295,80.099182 215.948349,87.806786 
	C218.490402,93.942970 220.749298,100.196457 223.141129,106.416656 
	C224.500702,106.796143 225.305649,105.803902 226.264908,105.340042 
	C233.805206,101.693863 241.304611,100.865944 248.430878,106.155243 
	C255.937149,111.726578 258.703461,119.398659 257.587524,128.553329 
	C256.339935,138.788132 252.084305,148.023071 247.921661,157.282806 
	C247.103455,159.102890 246.403412,161.002319 245.366821,162.692139 
	C243.623886,165.533386 244.249100,166.690018 247.489014,167.813980 
	C258.984283,171.801727 263.744995,179.662430 261.993652,191.261490 
	C260.867004,198.723480 256.107178,203.802963 250.201050,207.877899 
	C241.340927,213.990906 231.255524,217.547821 221.183014,220.968140 
	C217.144501,222.339478 216.253769,223.380524 218.295105,227.680344 
	C225.541031,242.943024 213.515289,258.827454 196.210342,257.423920 
	C184.319473,256.459534 173.886292,251.193726 163.249969,246.497925 
	C161.882294,245.894104 160.485840,245.331955 159.187531,244.600021 
	C157.172607,243.464111 156.381790,244.072174 155.713211,246.230164 
	C153.049881,254.826782 147.925797,260.923065 138.382462,261.928436 
	C128.352676,262.985077 121.043266,258.360626 115.530769,250.439117 
	C108.992897,241.044083 105.359848,230.282288 101.574715,219.636261 
	C100.463051,216.509583 99.591621,216.026413 96.450752,217.559937 
	C80.518242,225.338959 64.348076,213.888489 65.644722,196.081711 
	C66.412567,185.537064 70.699104,176.177078 74.858940,166.739594 
	C76.265785,163.547867 79.058174,160.181763 78.687180,157.211365 
	C78.313019,154.215698 73.335236,154.512100 70.585793,152.878052 
	C60.142052,146.671158 57.695869,132.187851 65.517509,121.898499 
	C68.282890,118.260651 71.864586,115.565125 76.032547,113.017082 
z"/>
<path fill="#F4F6FF" opacity="1.000000" stroke="none" 
	d="
M99.363426,277.898926 
	C97.958885,280.878937 96.660591,283.577332 95.476143,286.324829 
	C94.785980,287.925781 94.048897,288.747223 92.098129,287.913635 
	C89.886787,286.968719 90.189857,285.763641 91.036728,284.041504 
	C93.311607,279.415497 95.431961,274.713684 97.687218,270.077728 
	C98.320976,268.774994 98.463432,266.265717 100.954987,267.883911 
	C102.932747,269.168396 106.722534,268.666412 106.105705,272.707764 
	C105.607079,275.974670 105.039078,279.230957 104.398247,283.120941 
	C108.047615,281.449646 109.588570,278.463348 111.376717,275.990448 
	C114.117188,272.200562 116.359337,275.275421 118.651207,276.123871 
	C121.479973,277.171112 119.728394,279.099091 119.040390,280.620026 
	C116.983978,285.165924 114.780876,289.645721 112.744301,294.200195 
	C111.922394,296.038269 110.981117,296.765900 108.947861,295.817902 
	C106.891396,294.859039 106.896591,293.754059 107.831001,291.900848 
	C108.843811,289.892273 110.288681,287.963348 110.227020,285.032227 
	C107.682701,285.916779 106.692581,288.089600 105.164108,289.586334 
	C103.813675,290.908722 103.034927,293.123932 100.367447,291.771759 
	C97.766731,290.453369 98.897217,288.372406 99.113602,286.537750 
	C99.425110,283.896637 99.964340,281.282440 100.530334,278.236084 
	C100.302612,277.581696 99.922173,277.532166 99.363426,277.898926 
z"/>
<path fill="#F5F7FF" opacity="1.000000" stroke="none" 
	d="
M121.546860,35.721817 
	C121.542076,39.049931 121.708633,42.204273 122.093086,45.331833 
	C122.327606,47.239605 121.370628,47.933636 119.829132,48.563473 
	C118.130646,49.257450 117.404526,48.269390 116.588921,47.159367 
	C115.054085,45.070488 113.488068,43.004524 111.355309,40.154324 
	C110.458084,43.748108 112.142036,45.747528 112.810753,47.885067 
	C113.410713,49.802788 113.226105,50.998512 111.176811,51.738537 
	C109.005211,52.522724 108.604683,50.993683 108.091148,49.594898 
	C106.318756,44.767185 104.584068,39.925652 102.825363,35.092892 
	C102.269600,33.565720 101.097900,31.694241 103.695297,31.146044 
	C105.949783,30.670221 108.263832,27.492119 110.675636,30.951511 
	C112.824699,34.034050 115.017662,37.085987 117.942879,41.211456 
	C117.492508,36.406769 117.395164,32.939915 116.794685,29.562510 
	C116.002357,25.106064 119.680252,25.479141 121.972855,24.454826 
	C124.866127,23.162140 124.777260,25.894152 125.351959,27.368614 
	C127.157906,32.001976 128.771820,36.709881 130.549210,41.354816 
	C131.252197,43.191929 131.248352,44.323097 129.046555,45.189869 
	C126.784851,46.080227 126.129150,45.149914 125.532616,43.302788 
	C124.820473,41.097698 123.932053,38.949539 123.009880,36.422482 
	C122.626526,35.706608 122.269112,35.517540 121.546860,35.721817 
z"/>
<path fill="#F3F5FF" opacity="1.000000" stroke="none" 
	d="
M77.579063,67.255783 
	C74.628929,66.717163 72.074661,66.278717 68.284859,65.628197 
	C71.080139,68.741562 73.073898,70.914200 75.009430,73.137520 
	C76.033836,74.314240 77.618446,75.327072 75.534111,77.142448 
	C73.759361,78.688187 72.707207,78.067543 71.439095,76.634377 
	C68.023979,72.774765 64.491066,69.017746 61.140575,65.103867 
	C60.423477,64.266197 58.490738,63.533627 59.764477,61.929340 
	C60.866016,60.541946 62.044300,59.056328 64.317780,59.585907 
	C68.335754,60.521835 72.389091,61.305916 77.719223,62.424644 
	C75.023079,59.290707 73.239616,57.017574 71.235962,54.958721 
	C69.891884,53.577614 69.852676,52.635067 71.241463,51.261265 
	C72.764275,49.754875 73.694763,50.311062 74.872383,51.635170 
	C78.408684,55.611366 82.060646,59.484829 85.588409,63.468399 
	C86.379623,64.361839 87.943764,65.287697 86.695953,66.805923 
	C85.760422,67.944183 84.672241,68.949036 82.848701,68.360374 
	C81.279549,67.853844 79.603638,67.678017 77.579063,67.255783 
z"/>
<path fill="#F2F5FF" opacity="1.000000" stroke="none" 
	d="
M273.850525,92.621368 
	C271.102203,93.930038 268.577454,95.206924 266.147583,96.644226 
	C264.348511,97.708435 263.541992,96.902382 262.624329,95.398376 
	C261.612488,93.740044 262.393494,93.031540 263.704315,92.292526 
	C268.343201,89.677116 272.934143,86.974564 277.614838,84.437035 
	C278.616241,83.894157 279.799408,82.213493 281.037323,83.761734 
	C282.102295,85.093651 283.551971,86.486740 282.474091,88.647530 
	C280.693207,92.217575 279.061401,95.862022 277.273438,99.674210 
	C280.308197,100.483452 282.063385,97.967545 284.364044,97.053795 
	C285.921997,96.435036 287.353668,94.638306 288.947296,97.219490 
	C290.535675,99.792175 288.563660,100.320732 287.029419,101.196709 
	C282.697754,103.669884 278.382507,106.173676 274.006775,108.566650 
	C272.995148,109.119896 271.928375,110.706566 270.584412,109.141289 
	C269.472382,107.846176 268.870331,106.502899 269.825317,104.641533 
	C271.568817,101.243309 273.018219,97.694206 274.679871,93.853973 
	C274.568665,93.205826 274.351318,92.924690 273.850525,92.621368 
z"/>
<path fill="#F2F5FF" opacity="1.000000" stroke="none" 
	d="
M42.390518,144.593369 
	C42.378944,152.787399 38.762714,157.370209 32.297241,157.857010 
	C26.212736,158.315125 20.790476,154.228012 20.015993,148.599823 
	C19.147076,142.285370 22.464674,137.126511 28.299675,135.718674 
	C34.812630,134.147263 40.132008,137.369507 42.390518,144.593369 
z"/>
<path fill="#F3F5FF" opacity="1.000000" stroke="none" 
	d="
M218.308929,290.674927 
	C219.805344,293.191406 218.295044,293.944702 216.682281,294.695312 
	C214.964096,295.494934 214.325302,294.477386 213.703583,293.128967 
	C211.408081,288.150360 209.091690,283.180542 206.700775,278.247314 
	C205.955154,276.708862 205.552460,275.551575 207.601639,274.700378 
	C210.975174,273.299072 214.173370,271.384949 217.639938,270.319977 
	C222.633789,268.785828 226.948318,272.573883 225.873123,277.606720 
	C225.395737,279.841309 225.529266,280.860657 227.636719,281.611328 
	C228.185760,281.806915 228.824478,282.489410 228.933640,283.044342 
	C229.278870,284.799225 232.901184,285.894043 230.280273,288.147705 
	C227.745026,290.327698 226.117569,288.656250 224.891663,286.288757 
	C223.422760,283.451935 221.361404,284.095215 218.982941,285.114502 
	C215.711731,286.516449 217.292053,288.414062 218.308929,290.674927 
z"/>
<path fill="#F4F6FF" opacity="1.000000" stroke="none" 
	d="
M196.588165,23.184958 
	C200.303101,24.035271 199.441696,26.294899 198.489838,28.227383 
	C196.670319,31.921503 198.554031,32.967060 201.728165,34.032024 
	C205.026581,35.138691 206.961304,35.009830 207.647919,31.106058 
	C207.986160,29.182934 208.006332,26.595423 211.606323,27.862022 
	C215.029633,29.066452 213.070480,31.095324 212.646317,32.639271 
	C211.373245,37.273357 209.761215,41.813282 208.351791,46.411507 
	C207.830292,48.112854 207.431305,49.563171 205.030441,48.890453 
	C202.487106,48.177822 202.655914,46.624062 203.240051,44.687172 
	C203.988739,42.204746 206.127640,39.667671 201.490173,38.174377 
	C197.421280,36.864166 194.916138,36.810806 194.218445,41.747955 
	C193.973618,43.480419 193.742859,45.368690 190.771851,44.437210 
	C187.997696,43.567444 188.610626,41.985622 189.141800,40.253960 
	C190.698654,35.178516 192.361938,30.135736 193.922958,25.061533 
	C194.297333,23.844599 194.676712,22.832645 196.588165,23.184958 
z"/>
<path fill="#F3F5FF" opacity="1.000000" stroke="none" 
	d="
M285.129395,171.871765 
	C282.223236,171.821121 281.672241,170.446518 282.014221,168.230240 
	C282.376923,165.879379 283.952148,166.469238 285.412567,166.630554 
	C290.540314,167.196930 295.662903,167.820267 300.799316,168.292847 
	C303.327209,168.525436 304.282166,169.520462 303.734314,172.147629 
	C303.090973,175.232437 303.104950,178.476944 302.263184,181.492905 
	C300.644318,187.293121 295.682465,188.757538 291.254242,184.667633 
	C289.775604,183.301956 289.060852,183.492340 287.617218,184.264206 
	C286.659485,184.776291 285.336975,184.969894 284.257202,184.800354 
	C282.823944,184.575287 280.265015,186.335541 280.275848,182.946747 
	C280.284302,180.298004 281.790863,179.576584 284.184082,179.776459 
	C287.340515,180.040070 288.566284,178.294724 288.954834,175.333420 
	C289.331970,172.459229 287.884186,171.851349 285.129395,171.871765 
z"/>
<path fill="#F4F6FF" opacity="1.000000" stroke="none" 
	d="
M218.730408,55.251358 
	C216.646164,53.938343 217.833908,52.830242 218.498581,51.748096 
	C221.278015,47.222843 224.167892,42.761852 226.819168,38.163082 
	C228.001648,36.112007 229.068008,35.684422 231.057678,37.109089 
	C233.752213,39.038475 236.776840,40.534046 239.345123,42.605873 
	C242.747726,45.350761 243.518951,50.501030 240.235168,51.932251 
	C235.566833,53.966942 235.870010,57.989727 234.215363,61.275917 
	C233.598145,62.501789 233.477264,64.477379 231.221664,63.036201 
	C229.747192,62.094109 228.455429,61.342796 229.458450,59.152294 
	C230.353439,57.197750 232.217300,55.068180 229.417404,52.996162 
	C227.092575,51.275681 224.994263,49.877110 223.322693,53.745296 
	C222.525421,55.590267 221.481598,57.546928 218.730408,55.251358 
z"/>
<path fill="#F4F7FF" opacity="1.000000" stroke="none" 
	d="
M296.976410,117.042191 
	C297.684814,119.848572 298.540100,122.223587 298.903015,124.671600 
	C299.849304,131.054321 296.805267,135.548874 290.805450,137.000488 
	C284.680450,138.482391 280.167969,136.002365 277.863556,129.887756 
	C274.353821,120.574883 274.354065,120.575821 283.678467,118.071732 
	C286.887390,117.209976 290.104736,116.377205 293.298401,115.462090 
	C294.818787,115.026443 296.260468,114.528328 296.976410,117.042191 
z"/>
<path fill="#F1F4FF" opacity="1.000000" stroke="none" 
	d="
M182.235321,287.801331 
	C184.673615,292.619415 187.930527,289.274933 190.538910,288.826935 
	C193.319183,288.349426 191.134506,285.922241 191.186264,284.354248 
	C191.243240,282.626923 189.554810,280.279510 193.030930,279.810089 
	C194.758606,279.576752 195.769333,279.547058 196.144516,281.691040 
	C197.116379,287.245087 198.254501,292.774628 199.509003,298.272247 
	C199.969055,300.288361 199.281982,300.884521 197.452896,301.270630 
	C195.642761,301.652740 194.533401,301.362549 194.206284,299.415894 
	C194.123703,298.924438 194.116882,298.410767 193.967239,297.941772 
	C193.448059,296.314545 194.003372,293.588196 191.935898,293.422363 
	C189.577362,293.233154 186.841553,293.878815 184.775284,295.052032 
	C182.879745,296.128296 184.627625,298.345764 184.776794,300.058411 
	C184.925079,301.761047 185.966934,303.601196 182.965652,304.198303 
	C180.237289,304.741119 179.928619,303.293640 179.564636,301.334137 
	C178.685211,296.599854 177.654694,291.893311 176.802811,287.154419 
	C176.504211,285.493469 174.770172,283.454742 178.353531,282.685638 
	C182.112030,281.878906 181.418518,284.582306 182.003342,286.408478 
	C182.103302,286.720642 182.104675,287.064392 182.235321,287.801331 
z"/>
<path fill="#F3F5FF" opacity="1.000000" stroke="none" 
	d="
M47.378181,109.677750 
	C49.174294,109.209839 50.608864,108.861610 52.098240,108.500084 
	C51.523403,113.810295 51.522305,113.806572 44.390877,115.910820 
	C43.032398,116.311661 40.910236,116.139778 40.703274,117.704239 
	C40.443211,119.670158 42.591198,120.184738 44.099239,120.765907 
	C45.971783,121.487534 47.975163,121.745224 46.911686,124.742897 
	C45.769531,127.962349 43.874916,126.343018 42.211540,125.744995 
	C37.686867,124.118279 33.209095,122.360863 28.715883,120.646980 
	C26.950933,119.973755 25.257376,119.394806 26.323120,116.785057 
	C27.365355,114.232872 28.869909,114.840446 30.675764,115.658844 
	C31.859329,116.195213 33.141712,116.513535 34.735737,117.049080 
	C34.861702,111.689407 27.556072,107.707664 32.416893,101.955254 
	C33.498592,102.152832 33.622204,103.235939 34.027313,104.014046 
	C38.233349,112.092834 38.224918,112.097221 47.378181,109.677750 
z"/>
<path fill="#F2F5FF" opacity="1.000000" stroke="none" 
	d="
M63.607819,91.675354 
	C57.439804,100.473267 57.439800,100.473274 48.635643,94.566513 
	C39.326012,88.320625 39.326939,88.321251 45.553913,79.237816 
	C46.212524,78.277092 46.914944,77.338837 47.486435,76.327652 
	C48.400654,74.710037 49.405334,74.924583 50.723743,75.866531 
	C51.944798,76.738922 52.088043,77.523117 51.198326,78.731583 
	C49.916843,80.472183 48.709347,82.274734 47.586163,84.121330 
	C46.996498,85.090775 45.464382,86.040054 47.345837,87.361687 
	C48.944519,88.484695 49.737091,87.988724 51.038258,86.689720 
	C52.534054,85.196396 52.586952,80.683907 55.890800,82.708092 
	C59.720695,85.054565 55.185699,86.922562 54.471233,89.003784 
	C54.032444,90.281982 53.140537,91.230110 54.742493,92.380226 
	C56.409428,93.576973 57.396023,93.114586 58.360905,91.552460 
	C59.321804,89.996788 60.367558,88.487633 61.461845,87.022095 
	C62.355862,85.824776 62.799549,83.795990 65.163879,85.279297 
	C67.527184,86.761963 65.964684,87.968048 65.170761,89.291855 
	C64.743111,90.004921 64.273880,90.693069 63.607819,91.675354 
z"/>
<path fill="#F5F7FF" opacity="1.000000" stroke="none" 
	d="
M261.201233,75.257225 
	C259.577179,78.916580 258.089783,82.222412 256.493774,85.769653 
	C254.179337,83.895798 252.000397,82.742104 253.612595,79.179115 
	C254.901352,76.330917 249.488083,70.952576 246.513443,72.144012 
	C243.226425,73.460571 242.004150,71.682045 240.293869,69.265099 
	C246.811310,66.571060 253.229919,63.989273 259.582092,61.253258 
	C261.790710,60.301968 262.872406,61.588970 264.301208,62.808456 
	C265.964142,64.227760 265.588348,65.601753 264.838440,67.200943 
	C263.641144,69.754272 262.501740,72.334724 261.201233,75.257225 
z"/>
<path fill="#EEF2FF" opacity="1.000000" stroke="none" 
	d="
M26.080721,182.376404 
	C25.847504,184.340698 25.948053,185.993408 26.030739,187.647018 
	C26.104345,189.119064 25.256838,189.653091 23.918745,189.832779 
	C22.365578,190.041336 21.900755,189.261124 21.726692,187.894974 
	C21.035233,182.468048 20.271898,177.050293 19.563631,171.625427 
	C19.331350,169.846283 20.461834,169.344498 21.958109,169.187836 
	C23.602692,169.015640 24.046337,170.083847 23.953949,171.324753 
	C23.549255,176.760590 26.872776,176.551514 30.640436,175.932465 
	C33.419323,175.475891 36.239178,175.271072 39.021278,174.830856 
	C40.936234,174.527847 42.079922,174.724823 42.375927,177.095917 
	C42.673061,179.476120 41.649090,179.856522 39.679501,180.092911 
	C35.240284,180.625717 30.829229,181.393204 26.080721,182.376404 
z"/>
<path fill="#F0F3FF" opacity="1.000000" stroke="none" 
	d="
M158.478607,293.655151 
	C158.294220,296.759064 158.091507,299.412537 158.060318,302.068024 
	C158.038895,303.891327 157.952621,305.223602 155.486664,305.257507 
	C152.625000,305.296844 152.745483,303.585815 152.811127,301.671875 
	C152.925064,298.350159 152.892502,295.017700 153.157684,291.708649 
	C153.379608,288.939423 152.930908,287.225983 149.552261,287.491516 
	C147.837051,287.626343 145.688477,287.643311 145.980942,284.744354 
	C146.268219,281.897003 148.406921,283.054382 149.771378,283.086243 
	C154.251404,283.190887 158.724823,283.555023 163.203110,283.770538 
	C164.890656,283.851776 166.669708,283.609924 166.520355,286.214050 
	C166.379974,288.662109 164.537643,288.204071 163.232788,287.981537 
	C158.750946,287.217041 158.252014,289.808502 158.478607,293.655151 
z"/>
<path fill="#F3F5FF" opacity="1.000000" stroke="none" 
	d="
M165.922562,31.833691 
	C165.979462,30.216200 165.863464,29.031128 166.046005,27.893982 
	C166.581909,24.555607 165.580399,22.780251 161.864532,23.160004 
	C160.392685,23.310425 158.793732,23.305624 158.871536,20.969702 
	C158.947464,18.690262 160.401382,18.815783 161.965759,18.906471 
	C166.937836,19.194704 171.911194,19.460634 176.883621,19.742819 
	C178.265167,19.821220 179.550934,19.876308 179.336044,21.931185 
	C179.152893,23.682734 178.241364,24.357550 176.715317,23.991802 
	C171.270035,22.686731 171.269608,26.283846 171.191391,29.928894 
	C171.130814,32.752033 170.859772,35.575241 170.906937,38.394661 
	C170.944641,40.648418 170.002731,41.184750 167.894928,41.085709 
	C165.829529,40.988659 165.342880,40.007061 165.478134,38.244862 
	C165.630447,36.260502 165.751434,34.273731 165.922562,31.833691 
z"/>
<path fill="#EEF2FF" opacity="1.000000" stroke="none" 
	d="
M301.562195,148.185028 
	C304.868683,152.068268 304.530731,153.388367 300.334015,153.797607 
	C295.383087,154.280396 290.408386,154.516129 285.446686,154.894180 
	C283.542053,155.039291 281.870911,155.269806 281.773163,152.420517 
	C281.678101,149.649460 283.398285,149.580093 285.274414,149.431595 
	C290.565155,149.012802 295.856384,148.600113 301.562195,148.185028 
z"/>
<path fill="#F2F5FF" opacity="1.000000" stroke="none" 
	d="
M133.978699,291.091766 
	C133.296387,294.067993 132.593018,296.616089 132.095810,299.203796 
	C131.737900,301.066498 131.307495,302.360535 128.923813,301.645416 
	C127.049713,301.083099 126.211044,300.400024 126.793221,298.203094 
	C128.186295,292.946259 129.370819,287.630859 130.505096,282.310425 
	C130.955017,280.200012 131.974487,279.665588 133.984833,280.165497 
	C135.908585,280.643890 136.261459,281.789551 135.838181,283.479187 
	C135.237076,285.878723 134.642990,288.280029 133.978699,291.091766 
z"/>
<path fill="#F0F4FF" opacity="1.000000" stroke="none" 
	d="
M146.427963,41.921230 
	C144.194778,42.249981 142.361191,42.716022 142.036240,39.879669 
	C141.415085,34.458279 140.684799,29.047283 139.875656,23.650587 
	C139.551697,21.489872 140.420609,20.731998 142.431305,20.385937 
	C144.634430,20.006754 144.977097,21.194538 145.100632,22.865213 
	C145.568573,29.194067 147.928406,35.350250 146.427963,41.921230 
z"/>
<path fill="#819CFF" opacity="1.000000" stroke="none" 
	d="
M121.686890,35.954895 
	C120.795013,34.811546 120.811485,33.702274 121.183243,32.550274 
	C122.670387,32.993435 122.327751,34.494404 122.902550,35.756294 
	C122.629898,36.046471 122.360031,36.024689 121.686890,35.954895 
z"/>
<path fill="#8DA6FF" opacity="1.000000" stroke="none" 
	d="
M99.583481,278.127808 
	C99.616127,277.403168 99.864273,276.246704 100.475143,276.004272 
	C101.062874,275.771057 100.999611,276.822662 100.792740,277.610779 
	C100.422066,277.908875 100.189835,278.002319 99.583481,278.127808 
z"/>
<path fill="#17D4FF" opacity="1.000000" stroke="none" 
	d="
M159.208557,238.078094 
	C158.388916,238.090683 157.833282,238.072205 157.438339,237.810867 
	C153.946381,235.500061 152.309296,235.752975 151.499359,240.546646 
	C150.314697,247.558273 147.909042,254.246216 139.676346,256.214539 
	C132.364914,257.962616 126.624191,255.265717 121.936729,249.821762 
	C116.292397,243.266495 113.234741,235.310837 110.141830,227.409546 
	C107.605751,220.930771 105.280815,214.369339 102.820641,207.732208 
	C99.476303,209.641495 96.553978,211.567123 93.422234,213.050690 
	C83.018112,217.979340 72.071007,211.501526 71.015045,199.941422 
	C70.420853,193.436508 72.375610,187.418427 74.541817,181.469345 
	C77.731979,172.708130 81.710938,164.277664 85.893440,155.958893 
	C87.354691,153.052567 87.025826,151.837433 83.665680,151.539337 
	C81.867653,151.379822 80.093094,150.763382 78.349258,150.220490 
	C72.460266,148.387161 67.831177,145.303528 66.633286,138.639267 
	C65.423882,131.910950 67.779938,126.500328 72.670334,122.111626 
	C78.464195,116.912163 85.515694,113.849533 92.653931,111.043655 
	C98.843025,108.610863 105.051285,106.196754 111.367104,104.128731 
	C114.668922,103.047585 116.038307,101.994019 113.275429,98.910919 
	C112.292137,97.813660 111.618538,96.418755 110.902245,95.105888 
	C108.069130,89.913185 106.482643,84.596382 109.974129,79.066528 
	C113.779007,73.040337 119.352882,70.266052 126.428947,70.639107 
	C133.002060,70.985634 139.165649,73.074875 145.140747,75.636032 
	C153.536682,79.234856 161.837448,83.055664 170.529709,86.938232 
	C171.422379,83.530228 172.076294,80.171211 173.182022,76.968163 
	C177.068085,65.711212 189.382324,62.405853 198.536301,70.086876 
	C202.439423,73.361946 205.072372,77.592323 207.356583,82.070831 
	C212.210876,91.588356 215.633789,101.680252 219.122849,111.734848 
	C220.158295,114.718666 221.205444,115.419991 223.838379,113.248451 
	C225.609863,111.787430 227.731171,110.676025 229.832016,109.701477 
	C240.246902,104.870110 250.768402,110.835648 252.201813,122.313095 
	C252.945862,128.270889 251.402344,133.877075 249.487961,139.405746 
	C246.215164,148.857590 241.795288,157.819107 237.497345,166.821640 
	C236.208618,169.521057 235.829132,170.972122 239.582016,171.205429 
	C241.694656,171.336792 243.807571,172.114700 245.836349,172.837280 
	C257.839386,177.112259 260.887451,189.867737 252.125107,199.199234 
	C247.823730,203.779984 242.413101,206.784454 236.688675,209.113419 
	C228.222275,212.557922 219.675629,215.818359 211.075012,218.912155 
	C208.300674,219.910141 207.623932,220.784348 209.592377,223.264664 
	C211.024689,225.069382 212.149551,227.162674 213.162338,229.248291 
	C218.351059,239.933258 211.978867,250.965744 200.105087,252.028076 
	C194.657455,252.515472 189.514374,251.198090 184.457962,249.474716 
	C177.680634,247.164795 171.104126,244.352081 164.395676,240.941681 
	C162.046524,238.714630 161.604813,236.161835 161.611389,233.405731 
	C161.626099,227.239410 161.807098,221.065002 161.577515,214.908356 
	C161.233337,205.679214 167.883835,201.102859 173.801514,196.120026 
	C175.587311,194.616333 178.109207,195.317139 179.715515,197.079453 
	C184.354050,202.168411 190.848236,205.724136 192.866028,213.014709 
	C193.290649,214.548935 194.547806,215.535950 196.282333,215.393555 
	C197.574219,215.287491 198.442795,214.481812 198.674332,213.199280 
	C199.024246,211.261093 198.037460,209.687576 196.365906,209.240860 
	C191.900116,208.047394 188.947647,204.960663 186.020065,201.752106 
	C184.858643,200.479202 183.882034,199.093369 184.513672,197.268311 
	C185.241364,195.165771 187.121475,194.749054 188.986969,194.778000 
	C194.554977,194.864380 200.308914,193.405334 205.485641,196.951660 
	C206.935562,197.944916 208.738220,197.718735 209.992004,196.187195 
	C210.824097,195.170776 210.828156,194.007675 210.049683,192.956497 
	C209.022934,191.570023 207.389282,191.061539 206.046692,191.860825 
	C198.737946,196.212067 190.748169,194.080154 183.071213,194.263580 
	C177.653519,194.393036 172.857651,194.911682 169.220642,199.455978 
	C167.978867,201.007523 166.258575,202.359009 163.992264,201.378754 
	C161.734665,200.402222 161.856094,198.220886 161.691620,196.237961 
	C161.622772,195.407761 161.763428,194.545853 161.600998,193.743576 
	C159.554688,183.636673 165.587677,177.566650 172.467422,171.926315 
	C174.893326,169.937439 177.583511,169.826538 179.646957,172.124985 
	C183.695343,176.634384 190.098190,175.013199 194.626022,178.249664 
	C195.643616,178.977036 197.228210,178.129837 198.044754,176.873505 
	C198.748932,175.790085 198.763016,174.641556 197.967865,173.612030 
	C197.041336,172.412384 195.751450,172.253876 194.356964,172.604279 
	C193.198425,172.895401 192.311188,173.705627 191.275681,174.222855 
	C186.983582,176.366669 182.077576,174.962601 179.487915,170.967773 
	C178.615784,169.622406 178.321365,168.217010 178.705643,166.685974 
	C179.538879,163.366257 186.912827,156.964127 190.426666,156.797897 
	C197.918640,156.443497 205.418991,156.523270 212.917236,156.765533 
	C214.863602,156.828415 216.361023,157.827591 217.961227,158.727921 
	C219.532974,159.612228 221.191162,159.718796 222.510498,158.219345 
	C223.367004,157.245926 223.439774,156.036133 222.670258,154.987244 
	C221.477966,153.362091 219.760361,153.270859 218.201599,154.178192 
	C211.477814,158.091980 204.212982,156.180878 197.182007,156.057724 
	C193.217117,155.988266 191.849136,152.650208 194.651779,149.877396 
	C199.762405,144.821213 203.539459,138.071548 211.286301,136.094498 
	C213.149933,135.618881 214.452805,134.156143 214.069962,131.943695 
	C213.845367,130.645798 212.918503,129.906052 211.613632,129.856918 
	C209.661499,129.783417 208.233414,130.980927 207.937393,132.656342 
	C207.078751,137.516129 203.493622,140.332291 200.348999,143.483856 
	C190.460861,153.393829 180.612579,163.344116 170.624817,173.154099 
	C168.859314,174.888184 167.125031,177.059296 164.192993,175.773438 
	C161.533722,174.607224 161.923706,171.999741 161.652161,169.717957 
	C160.711227,161.811340 162.284515,155.066895 169.095810,149.862762 
	C173.029892,146.856964 176.286209,142.935104 179.784027,139.362457 
	C182.010849,137.087997 184.215637,134.814102 187.570816,134.259872 
	C188.056274,134.179688 188.503342,133.904694 188.937729,133.655655 
	C190.328552,132.858231 191.338943,131.789261 191.089249,130.054642 
	C190.904449,128.770828 190.069992,127.926788 188.788132,127.757225 
	C187.072571,127.530312 185.748489,128.451065 185.196213,129.918152 
	C182.098587,138.147018 174.501862,142.467178 169.072021,148.660278 
	C167.839966,150.065536 166.275757,151.211060 164.234161,150.482483 
	C162.162643,149.743195 161.904602,147.849869 161.744980,145.973602 
	C161.702576,145.475296 161.718079,144.970688 161.653564,144.477097 
	C160.547012,136.012756 162.351578,128.828873 169.635956,123.351433 
	C173.326370,120.576454 176.311508,116.851746 179.624161,113.565010 
	C181.534027,111.670090 183.416321,109.794151 186.286331,109.474182 
	C186.779846,109.419159 187.239761,109.173630 187.673706,108.924362 
	C189.074234,108.119888 190.000565,106.999825 189.795181,105.288216 
	C189.638458,103.982307 188.827866,103.135834 187.528076,102.993095 
	C185.812164,102.804649 184.368713,103.715248 184.031311,105.237892 
	C182.249695,113.278099 175.021271,116.903145 170.251663,122.501976 
	C168.740845,124.275475 166.870621,125.941017 164.179932,124.741127 
	C161.743179,123.654495 161.781235,121.331230 161.697189,119.173134 
	C161.535004,115.009239 161.600952,110.842812 161.691238,106.676208 
	C161.743561,104.261215 162.447388,102.188156 163.924881,100.219330 
	C165.018188,98.762474 164.845505,97.012611 163.309189,95.749435 
	C162.321045,94.936974 161.122025,94.841232 160.056900,95.591652 
	C158.370377,96.779892 158.411194,98.440552 159.293152,100.031639 
	C163.038025,106.787537 161.209305,114.035866 161.012207,121.071228 
	C160.909576,124.734909 157.626053,126.056747 155.043442,123.480789 
	C149.447922,117.899681 142.469299,113.495392 139.248550,105.768806 
	C138.506638,103.988953 137.311508,102.558784 135.085480,102.925072 
	C133.789703,103.138290 133.045013,104.099846 132.969543,105.378922 
	C132.854904,107.322052 134.011551,108.792130 135.709473,109.084023 
	C140.589584,109.922958 143.310959,113.628761 146.530151,116.690552 
	C149.428268,119.446968 151.879211,122.764557 155.068726,125.099739 
	C163.179932,131.038315 161.665802,139.350891 160.985321,147.393829 
	C160.701187,150.752136 157.548141,152.004349 155.183136,149.613129 
	C149.160889,143.524124 141.562973,138.792679 138.077515,130.414810 
	C137.336395,128.633377 135.998917,127.308899 133.835800,127.600632 
	C132.295700,127.808334 131.474304,128.887131 131.600388,130.415314 
	C131.782211,132.619354 133.365463,133.608322 135.320358,133.798752 
	C137.699799,134.030563 139.262024,135.465942 140.799515,136.994034 
	C146.591537,142.750656 152.447815,148.444183 158.098740,154.340561 
	C161.158646,157.533371 162.786194,169.937714 160.667358,173.748886 
	C159.459854,175.920807 157.655930,176.227829 155.595169,175.014786 
	C154.295151,174.249557 153.298370,173.092438 152.233612,172.038971 
	C141.452408,161.372208 130.764709,150.611755 120.042778,139.885605 
	C118.038994,137.881042 116.100128,135.881897 115.292763,132.983398 
	C114.778015,131.135437 113.465813,129.710953 111.294594,129.850906 
	C109.769943,129.949188 108.835907,130.970581 108.850952,132.507477 
	C108.872192,134.679550 110.369385,135.800354 112.229515,136.331161 
	C119.838608,138.502441 123.647018,145.185837 128.687973,150.326599 
	C130.869858,152.551712 129.713425,155.733841 126.705925,155.892288 
	C119.506332,156.271606 112.117279,158.058716 105.182648,154.331329 
	C103.605408,153.483566 101.973907,153.240921 100.589142,154.676468 
	C99.688728,155.609909 99.578018,156.804031 100.276840,157.901245 
	C101.223320,159.387314 102.876587,159.909424 104.199371,159.032166 
	C109.691536,155.389725 115.814384,156.968719 121.698708,156.624939 
	C123.691780,156.508484 125.719154,156.798096 127.693306,156.577728 
	C133.331223,155.948410 137.646912,157.972885 141.229568,162.328079 
	C143.561768,165.163147 146.014465,167.636353 143.118164,171.450424 
	C140.389664,175.043533 136.023285,176.285934 132.043228,174.428421 
	C130.847336,173.870285 129.877258,172.857727 128.535553,172.559402 
	C127.134125,172.247772 125.851990,172.447418 124.950058,173.668503 
	C124.177101,174.714966 124.166687,175.882690 124.912025,176.930328 
	C125.779495,178.149628 127.331276,178.828522 128.418472,178.032867 
	C133.358627,174.417435 140.366730,176.802032 144.984528,171.958710 
	C146.679977,170.180466 149.240540,171.301804 151.392868,172.707443 
	C160.721893,178.800034 162.803879,187.598389 161.174149,197.901276 
	C160.925858,199.470978 160.470123,200.880081 158.821136,201.408737 
	C156.996201,201.993790 155.396896,201.273621 154.455383,199.785889 
	C151.337814,194.859695 146.667831,194.129440 141.386414,194.348404 
	C136.395874,194.555298 131.388596,194.429169 126.389061,194.361526 
	C123.554001,194.323166 120.781448,194.269669 118.308708,192.402893 
	C116.614075,191.123505 114.570724,190.753494 112.934212,192.680115 
	C111.955383,193.832474 112.001938,195.237778 112.975380,196.353195 
	C114.626678,198.245346 116.537521,197.703918 118.392303,196.611298 
	C124.317055,193.121124 130.712402,194.586380 136.903976,195.163483 
	C139.819977,195.435272 140.722321,198.268372 138.833282,200.451965 
	C135.654938,204.125992 133.069870,208.777435 127.322449,209.283920 
	C125.538231,209.441132 124.208313,210.569519 124.196030,212.581360 
	C124.186752,214.099670 125.020309,215.146698 126.537483,215.362350 
	C128.532639,215.645889 129.755630,214.430603 130.266251,212.726181 
	C132.424316,205.522690 138.778503,201.870361 143.574677,196.928207 
	C145.776215,194.659668 148.444611,195.050217 150.745483,197.095352 
	C153.860809,199.864441 156.778595,202.839035 159.580505,205.927765 
	C160.644165,207.100311 161.145035,208.462067 161.202423,210.012146 
	C161.504578,218.174988 161.511169,226.338669 161.209457,234.501114 
	C161.159454,235.854050 160.872589,237.164459 159.208557,238.078094 
z"/>
<path fill="#2C5DFF" opacity="1.000000" stroke="none" 
	d="
M159.079300,238.470245 
	C158.909698,229.558762 158.782166,220.890244 159.066437,212.235260 
	C159.190399,208.460800 156.792343,206.517181 154.640656,204.283173 
	C147.127441,196.482452 147.086380,196.481659 139.610184,204.018097 
	C136.505249,207.148071 132.948898,209.812469 132.279480,214.852661 
	C131.898102,217.724121 129.098816,219.110687 126.106781,218.694183 
	C122.945976,218.254181 121.003944,216.350174 120.863777,213.007904 
	C120.738152,210.012238 121.948586,207.125671 124.947617,207.057571 
	C131.513428,206.908539 133.950912,201.635056 137.770950,197.652283 
	C131.147217,197.870941 124.371979,194.652130 118.095818,199.719772 
	C115.570351,201.758957 112.576797,200.963379 110.497856,198.519180 
	C108.432564,196.091034 108.361313,193.270844 110.349106,190.720123 
	C112.381187,188.112595 115.523743,187.342606 117.875084,189.318787 
	C121.255394,192.159744 124.911621,191.836700 128.692398,191.854675 
	C133.357635,191.876846 138.063248,192.244888 142.678238,191.762817 
	C148.477173,191.157074 152.659317,193.251694 155.864792,197.845764 
	C156.434753,198.662598 156.922333,199.536911 157.741760,200.858551 
	C161.303391,189.575195 157.552414,179.056534 148.981827,173.635895 
	C146.981384,172.370651 145.766510,173.275848 144.728043,174.592026 
	C142.418289,177.519501 139.459930,178.414581 135.898438,178.031631 
	C134.177551,177.846573 132.764481,178.435043 131.382614,179.641098 
	C128.437897,182.211212 125.178093,182.281891 122.522896,179.323105 
	C120.220688,176.757660 120.362122,173.674255 122.745407,171.185242 
	C125.347710,168.467514 128.452393,168.537994 131.210022,170.988785 
	C132.860229,172.455399 134.581406,172.915070 136.672302,172.830490 
	C139.380081,172.720978 140.937531,170.847565 142.140076,168.937698 
	C143.532150,166.726852 140.885101,165.916763 139.925980,164.551605 
	C136.643326,159.879303 132.170059,158.315918 126.518951,158.924484 
	C122.565926,159.350174 118.529686,159.040939 114.531334,158.995728 
	C111.371666,158.960007 108.459846,158.952011 105.747658,161.386368 
	C103.400612,163.493011 100.352722,162.940094 98.078613,160.628860 
	C95.783730,158.296509 95.592995,155.538940 97.547676,152.925278 
	C99.301857,150.579697 102.122330,149.104630 104.529152,150.908356 
	C111.847099,156.392593 119.931900,152.629807 127.929230,153.328979 
	C122.128044,148.182159 119.208755,140.035629 110.472847,138.407883 
	C107.078743,137.775467 105.153015,135.484482 105.372482,132.034988 
	C105.575119,128.849823 107.638016,126.710846 110.787369,126.400154 
	C114.188118,126.064674 116.768219,127.889305 117.305992,131.272324 
	C117.796402,134.357330 119.535583,136.326904 121.560890,138.343491 
	C132.541550,149.276810 143.472031,160.260559 154.464508,171.181915 
	C155.578812,172.289017 156.393295,173.931686 158.692078,174.065643 
	C159.185349,165.638214 160.726318,157.368271 152.222336,151.246490 
	C147.679688,147.976364 143.974442,143.503952 140.067856,139.405792 
	C138.117615,137.359924 136.080612,136.395065 133.184158,136.154343 
	C130.012909,135.890762 128.285492,133.345779 128.294632,130.161545 
	C128.303223,127.166916 130.031952,125.073097 132.948517,124.420784 
	C136.084732,123.719345 139.195770,124.920708 139.778793,127.951248 
	C140.796631,133.241959 144.711182,136.026505 147.919189,139.528656 
	C151.050598,142.947174 154.089767,146.450180 157.926620,149.409561 
	C158.573669,140.890869 161.628708,132.355988 152.905609,126.159676 
	C149.557388,123.781319 146.956818,120.353416 144.001968,117.417442 
	C141.207108,114.640427 138.754486,111.687668 134.160049,111.362495 
	C131.106079,111.146347 129.377884,108.434738 129.671448,105.140938 
	C129.937408,102.156883 131.656830,100.156845 134.624237,99.643814 
	C137.578140,99.133133 140.532623,100.299408 140.993744,103.150391 
	C141.951050,109.069351 146.609756,111.916512 150.044189,115.832390 
	C152.436829,118.560448 154.689819,121.410973 158.007645,123.612923 
	C157.798889,115.616066 161.557434,107.924202 156.402313,100.741547 
	C154.542343,98.150047 155.200623,95.186562 157.753952,93.151932 
	C160.072784,91.304161 162.794724,91.286285 165.179993,93.016487 
	C167.777023,94.900276 168.935455,97.886871 166.982895,100.462616 
	C161.554153,107.623985 165.390594,115.483009 164.781952,123.312149 
	C170.394455,117.019493 179.190308,113.887306 181.194916,104.535484 
	C181.899216,101.249931 184.221176,99.333191 187.741364,99.645798 
	C190.711090,99.909515 192.710159,101.547684 193.045120,104.671844 
	C193.412354,108.096802 192.058411,111.105125 188.628296,111.408470 
	C184.605896,111.764198 182.412430,114.206505 179.958939,116.650787 
	C177.480133,119.120300 175.010071,121.598579 172.535934,124.072784 
	C163.128906,133.480026 162.669128,134.903046 164.790482,150.206299 
	C170.731583,142.402283 179.574524,138.594620 182.433777,129.256317 
	C183.405640,126.082214 185.432632,123.923248 188.983871,124.317093 
	C192.127823,124.665779 194.254562,126.581764 194.450714,129.855713 
	C194.674973,133.598938 192.653214,135.945343 188.967133,136.318100 
	C186.237289,136.594177 184.393967,137.948532 182.599014,139.783615 
	C178.055527,144.428741 173.611267,149.197723 168.767746,153.513641 
	C165.221939,156.673203 163.559052,160.121246 164.077545,164.871140 
	C164.410782,167.923935 164.140076,171.042648 164.140076,174.213730 
	C167.016724,174.060913 167.910233,172.250381 169.135880,171.034332 
	C179.662674,160.589920 190.125229,150.080795 200.621185,139.605225 
	C202.971313,137.259644 205.241623,135.110703 205.543625,131.308899 
	C205.788223,128.229370 208.304413,126.269615 211.516205,126.362549 
	C214.661942,126.453590 216.870270,128.289078 217.379211,131.509567 
	C217.845016,134.457077 216.703568,137.458893 213.811691,137.818573 
	C207.615402,138.589233 204.645599,143.370972 200.634521,146.944275 
	C198.652817,148.709686 196.521210,150.306808 194.901794,152.849792 
	C202.557053,152.873352 209.987350,156.288452 216.979401,151.511841 
	C219.884415,149.527298 222.738144,149.950363 225.028214,152.582260 
	C227.188934,155.065521 227.078735,157.872681 225.061279,160.339401 
	C223.000198,162.859436 219.798782,163.643295 217.505341,161.563446 
	C214.327209,158.681335 210.858154,159.037170 207.256805,159.012222 
	C203.591370,158.986801 199.894150,159.310577 196.267349,158.935303 
	C190.834564,158.373138 186.471161,159.855179 183.278519,164.349243 
	C182.109161,165.995270 178.860916,166.926666 181.525696,169.944107 
	C183.900574,172.633286 186.575012,173.695465 189.924911,172.236557 
	C190.959503,171.785980 191.717850,170.737000 192.720184,170.169586 
	C195.575928,168.552963 198.277130,169.000916 200.368286,171.450348 
	C202.462753,173.903671 202.515228,176.670517 200.406189,179.194855 
	C198.323669,181.687424 195.339966,182.574310 192.861420,180.598099 
	C190.129135,178.419525 187.353500,177.795700 184.119019,177.963852 
	C181.802979,178.084274 180.419647,176.447372 179.218201,174.922104 
	C176.799820,171.851883 174.699722,172.127380 172.522934,175.070786 
	C172.228973,175.468246 171.824738,175.784286 171.470886,176.137329 
	C163.449081,184.140686 162.460205,187.582199 164.759766,199.733765 
	C165.211639,199.559372 165.839890,199.521744 166.035477,199.211426 
	C170.599136,191.970627 177.533676,191.120712 185.202545,191.807266 
	C188.673737,192.118011 192.196259,191.825867 195.694717,191.869888 
	C198.867844,191.909836 201.775940,191.805344 204.554184,189.537323 
	C207.213898,187.366074 210.336502,188.213318 212.550934,190.822449 
	C214.513245,193.134521 214.473267,195.827148 212.634171,198.186172 
	C210.676910,200.696808 207.601624,201.919785 205.162552,199.841446 
	C199.170578,194.735657 192.457245,198.176941 185.947479,197.404633 
	C188.939026,201.361038 191.148239,205.852310 196.742966,206.631531 
	C200.443802,207.146973 202.291077,209.583176 202.008438,213.301758 
	C201.758469,216.590408 199.678955,218.531555 196.485168,218.701675 
	C192.778091,218.899109 190.425385,216.856766 190.105011,213.138016 
	C189.914536,210.927032 188.888550,209.443970 187.423218,208.011185 
	C184.445068,205.099213 181.422516,202.222443 178.607132,199.157684 
	C176.649170,197.026321 175.361435,197.429428 173.296829,199.221313 
	C166.646240,204.993332 162.669464,211.463028 163.974838,220.880188 
	C164.835754,227.090897 164.115829,233.520721 164.093018,240.305878 
	C162.484375,240.079117 160.886459,239.398911 159.079300,238.470245 
z"/>
<path fill="#2E5BFF" opacity="1.000000" stroke="none" 
	d="
M110.215790,284.414856 
	C110.470512,284.426880 110.525314,284.618866 110.580124,284.810883 
	C110.392044,284.738892 110.203957,284.666870 110.215790,284.414856 
z"/>
<path fill="#2E5BFF" opacity="1.000000" stroke="none" 
	d="
M110.455063,39.286842 
	C111.057167,39.947323 111.261429,40.497528 111.465698,41.047729 
	C111.211617,41.120293 110.784683,41.319260 110.730713,41.245464 
	C110.287857,40.639946 108.855865,40.311153 110.455063,39.286842 
z"/>
<path fill="#2E5BFF" opacity="1.000000" stroke="none" 
	d="
M273.877014,92.819717 
	C274.234802,92.077766 274.879700,91.584541 274.885071,93.238556 
	C274.568878,93.351654 274.368317,93.203392 273.877014,92.819717 
z"/>
<path fill="#325EFF" opacity="1.000000" stroke="none" 
	d="
M24.679672,146.121368 
	C25.072464,143.349319 26.373106,141.811356 28.662964,141.132446 
	C32.460915,140.006409 36.825619,141.852036 37.654137,145.146469 
	C38.507843,148.541107 37.153412,150.988022 33.752563,152.010193 
	C29.252344,153.362778 25.962690,151.333206 24.679672,146.121368 
z"/>
<path fill="#3863FF" opacity="1.000000" stroke="none" 
	d="
M218.721603,280.770569 
	C216.404358,281.965424 214.451614,283.202545 213.215454,280.007660 
	C212.660339,278.572906 211.854935,277.192383 213.975723,276.420197 
	C216.056931,275.662384 218.225540,273.619476 220.363846,275.777222 
	C222.289307,277.720215 221.028915,279.378876 218.721603,280.770569 
z"/>
<path fill="#3A64FF" opacity="1.000000" stroke="none" 
	d="
M298.960083,175.126740 
	C298.928192,176.048721 298.922882,176.549805 298.835907,177.036285 
	C298.485626,178.995728 298.283508,181.138138 295.758881,181.526260 
	C294.520172,181.716705 293.318420,181.078415 293.121826,179.821243 
	C292.773499,177.593262 291.995392,174.831970 293.989349,173.372498 
	C295.191071,172.492889 297.863770,172.130844 298.960083,175.126740 
z"/>
<path fill="#3C66FF" opacity="1.000000" stroke="none" 
	d="
M234.737640,50.161098 
	C231.909607,49.243122 228.113663,49.644680 228.618134,45.400780 
	C228.744797,44.335308 229.587936,42.414692 230.929535,42.571064 
	C233.044495,42.817574 234.888153,44.156624 236.187485,45.943890 
	C237.443176,47.671139 236.728714,49.014816 234.737640,50.161098 
z"/>
<path fill="#3661FF" opacity="1.000000" stroke="none" 
	d="
M289.815552,121.949661 
	C292.759552,120.577705 294.064056,121.290848 294.540680,124.193916 
	C295.039398,127.231522 294.067963,129.437210 291.465668,130.861511 
	C288.834198,132.301788 286.056641,132.704529 283.538757,130.646851 
	C281.945068,129.344452 280.908203,127.444710 281.129181,125.412857 
	C281.365082,123.243271 283.725098,123.841194 285.121674,123.222939 
	C286.469116,122.626427 287.984192,122.408577 289.815552,121.949661 
z"/>
<path fill="#436BFF" opacity="1.000000" stroke="none" 
	d="
M257.166016,71.723320 
	C254.900253,73.820152 254.423401,71.572136 253.527420,70.581711 
	C252.818542,69.798111 253.260391,69.171661 254.154465,68.769989 
	C255.313522,68.249275 256.634064,67.161758 257.719513,67.947548 
	C259.092316,68.941414 257.788971,70.234314 257.166016,71.723320 
z"/>
</svg>